<?xml version="1.0" encoding="utf-8"?>
<!-- Generator: Adobe Illustrator 27.3.1, SVG Export Plug-In . SVG Version: 6.00 Build 0)  -->
<svg version="1.1" id="Layer_1" xmlns="http://www.w3.org/2000/svg" xmlns:xlink="http://www.w3.org/1999/xlink" x="0px" y="0px"
	 viewBox="0 0 91.7 127.9" style="enable-background:new 0 0 91.7 127.9;" xml:space="preserve">
<style type="text/css">
	.st0{fill:#40404D;}
</style>
<g>
	<g>
		<path class="st0" d="M91.7,127.9H0V0h91.7V127.9z M1,126.9h89.7V1H1V126.9z"/>
	</g>
	<g>
		<path class="st0" d="M89.6,125.7H2.2V2.1h87.4V125.7z M3.2,124.7h85.4V3.2H3.2V124.7z"/>
	</g>
	<path class="st0" d="M55.6,30.6l4.9-9.9l-8-3.5l13.8,3.6l-5,9.8C61.3,30.6,55.6,30.6,55.6,30.6z M67.5,20.8l-5,9.7h5.8l7.7-14
		L67.5,20.8z M25.4,20.8l5,9.8h5.7l-4.9-9.9l8-3.5L25.4,20.8z M33,35.6l12.9,25.2l0,0l0,0l0,0l0,0l0,0l0,0l12.9-25.2h-5.6l-7.3,14.8
		l-7.3-14.8H33z M75.3,15.6H50.8L67,19.9L75.3,15.6z M45.9,63.2L31.8,35.6h-5.6l19.7,36l0,0l0,0l0,0l0,0l19.7-36H60L45.9,63.2z
		 M24.2,20.8l-8.5-4.4l7.7,14.1h5.8L24.2,20.8z M41,15.6H16.5l8.3,4.2L41,15.6z"/>
	<path class="st0" d="M26.8,109c0,0.2-0.1,0.3-0.2,0.3c-0.6,0.2-0.9,0.7-0.9,1.5v0.6c0,0.5,0.1,0.9,0.3,1.3
		c-0.5,0.3-1.1,0.6-1.8,0.8c-0.7,0.3-1.1,0.4-1.3,0.4c-1.3,0-2.5-0.2-3.6-0.6c-1-0.4-1.9-1-2.5-1.9s-1-1.9-1-3.2
		c0-0.8,0.1-1.6,0.4-2.3c0.3-0.7,0.7-1.4,1.2-2s1.2-1.1,2.1-1.4s1.8-0.5,2.9-0.5c0.6,0,1.2,0.1,1.7,0.2s0.9,0.2,1.2,0.4
		c0.3,0.2,0.4,0.3,0.3,0.5l-0.2,0.6c-0.1,0.3-0.2,0.5-0.3,0.5c-0.1,0.1-0.3,0-0.5-0.1s-0.5-0.2-0.7-0.4c-0.3-0.1-0.6-0.3-1.1-0.4
		s-1-0.2-1.5-0.2c-1.3,0-2.2,0.4-2.9,1.1c-0.7,0.7-1,1.7-1,3c0,0.9,0.2,1.7,0.5,2.5c0.3,0.7,0.7,1.3,1.2,1.8c0.5,0.4,1,0.8,1.6,1
		s1.1,0.4,1.7,0.4c1.2,0,1.7-0.5,1.7-1.6V111c0-0.6-0.1-1-0.4-1.3s-0.7-0.4-1.4-0.5c-0.1,0-0.1-0.1-0.1-0.3c0.1-0.2,0.2-0.3,0.4-0.3
		h4C26.7,108.8,26.8,108.9,26.8,109z M39.9,113.6c0,0.1,0,0.2-0.1,0.2c-0.4,0.2-1,0.2-1.6,0.1s-1.2-0.5-1.6-1l-2.5-3.2
		c-0.3-0.4-0.7-0.7-1.1-0.8c-0.4-0.1-1-0.2-1.6-0.2v3.2c0,0.5,0.1,0.9,0.4,1.1s0.8,0.3,1.4,0.4c0,0,0,0,0,0.1s0,0.2,0,0.3
		c0,0.1-0.1,0.1-0.1,0.1h-4.7c0,0-0.1,0-0.1-0.1s0-0.2,0-0.3c0-0.1,0-0.1,0.1-0.1c0.4-0.1,0.8-0.2,1-0.4c0.2-0.2,0.3-0.6,0.3-1v-7.3
		c0-0.5-0.1-0.9-0.3-1.1c-0.2-0.2-0.6-0.4-1-0.5c-0.1,0-0.1-0.1-0.1-0.3c0-0.2,0.1-0.2,0.2-0.2c0.5,0.1,1.1,0.1,1.9,0.1
		c0.4,0,0.9,0,1.6,0c0.7,0,1.1,0,1.3,0c1.2,0,2.2,0.3,2.9,0.8s1.1,1.3,1.1,2.2c0,0.9-0.3,1.6-0.9,2.1c-0.6,0.5-1.2,0.8-2,0.8v0.1
		c0.3,0,0.6,0.1,0.8,0.2c0.2,0.2,0.5,0.5,0.9,0.9l2.5,3.1C39,113.4,39.4,113.7,39.9,113.6C39.9,113.4,39.9,113.5,39.9,113.6z
		 M34.6,107.5c0.5-0.3,0.8-0.9,0.8-1.7c0-0.9-0.2-1.5-0.7-2s-1.1-0.7-1.9-0.7c-0.5,0-0.8,0.1-1,0.3c-0.2,0.2-0.3,0.5-0.3,1v3.5H32
		C33.2,107.9,34.1,107.8,34.6,107.5z M50.3,103.8c1.1,1.1,1.6,2.5,1.6,4.2s-0.5,3.1-1.6,4.3c-1.1,1.2-2.5,1.7-4.2,1.7
		s-3.1-0.6-4.2-1.7c-1.1-1.1-1.6-2.5-1.6-4.2s0.5-3.1,1.6-4.3s2.5-1.7,4.2-1.7C47.8,102.1,49.2,102.7,50.3,103.8z M50.3,108.9
		c0-1.6-0.5-3-1.4-4.1c-1-1.1-2.1-1.6-3.3-1.6c-0.4,0-0.8,0.1-1.2,0.2s-0.8,0.4-1.1,0.7c-0.4,0.3-0.7,0.7-0.9,1.3
		c-0.2,0.6-0.3,1.2-0.3,2c0,1.6,0.5,3,1.4,4.1s2.1,1.6,3.3,1.6c0.4,0,0.8-0.1,1.2-0.2s0.8-0.4,1.1-0.7c0.4-0.3,0.7-0.7,0.9-1.3
		C50.2,110.3,50.3,109.6,50.3,108.9z M65.2,102.4h-3.5c0,0-0.1,0-0.1,0.1s0,0.2,0,0.3c0,0.1,0,0.1,0,0.1c0.5,0.1,0.8,0.2,1,0.4
		c0.2,0.2,0.4,0.6,0.4,1.1v5.2c0,1.1-0.3,2-0.9,2.5c-0.6,0.6-1.4,0.9-2.4,0.9s-1.7-0.3-2.3-0.9s-0.9-1.4-0.9-2.6v-5.2
		c0-0.5,0.1-0.9,0.3-1.1s0.5-0.3,1-0.4c0,0,0.1,0,0.1-0.1s0-0.2,0-0.3c0-0.1-0.1-0.1-0.1-0.1h-4.2c0,0-0.1,0-0.1,0.1s0,0.2,0,0.3
		c0,0.1,0,0.1,0.1,0.1c0.4,0.1,0.8,0.2,1,0.4c0.2,0.2,0.3,0.6,0.3,1.1v5.2c0,0.8,0.1,1.5,0.4,2.1c0.3,0.6,0.7,1.1,1.1,1.4
		s1,0.6,1.5,0.8c0.5,0.2,1.1,0.3,1.7,0.3c1.3,0,2.4-0.4,3.2-1.2c0.8-0.8,1.2-1.9,1.2-3.3v-5.2c0-0.5,0.1-0.9,0.4-1.1
		c0.2-0.2,0.6-0.3,1-0.4c0,0,0.1,0,0.1-0.1s0-0.2,0-0.3C65.3,102.4,65.3,102.4,65.2,102.4z M76,105.8c0,1.4-0.6,2.4-1.8,3.1
		c-1.2,0.6-2.7,0.8-4.5,0.5v2.4c0,0.5,0.1,0.9,0.4,1.1s0.8,0.3,1.4,0.4c0,0,0,0,0,0.1s0,0.2,0,0.3c0,0.1-0.1,0.1-0.1,0.1h-4.7
		c0,0-0.1,0-0.1-0.1s0-0.2,0-0.3c0-0.1,0-0.1,0.1-0.1c0.4-0.1,0.8-0.2,1-0.4c0.2-0.2,0.3-0.6,0.3-1v-7.3c0-0.5-0.1-0.9-0.3-1.1
		c-0.2-0.2-0.6-0.4-1-0.5c-0.1,0-0.1-0.1-0.1-0.3c0-0.2,0.1-0.2,0.2-0.2c0.5,0.1,1.1,0.1,1.9,0.1c0.4,0,0.9,0,1.5,0s1.1,0,1.4,0
		c1.3,0,2.4,0.3,3.2,0.8C75.6,103.8,76,104.6,76,105.8z M74.2,106.2c0-1-0.3-1.8-0.9-2.3s-1.3-0.8-2.2-0.8c-0.6,0-0.9,0.1-1.1,0.3
		c-0.2,0.2-0.3,0.5-0.3,1v4.2c1.5,0.2,2.6,0.1,3.4-0.3C73.8,108,74.2,107.3,74.2,106.2z M16.1,90.3c0.2,0,0.4,0.1,0.6,0.3
		c0.2,0.1,0.3,0.4,0.5,0.9l2.5,6c0,0,0.1,0,0.4,0c0.2-0.1,0.4-0.1,0.4-0.1c0-0.4,0.2-0.9,0.5-1.8l1.8-4c0.2-0.4,0.3-0.7,0.5-0.9
		c0.2-0.1,0.3-0.2,0.6-0.3c0.1,0,0.1-0.1,0.1-0.2s0-0.2-0.1-0.2h-2.2c-0.1,0-0.1,0.1-0.1,0.2s0,0.2,0.1,0.2c0.2,0,0.3,0.1,0.4,0.1
		s0.2,0.1,0.2,0.2c0.1,0.1,0.1,0.2,0.1,0.3c0,0.1-0.1,0.3-0.2,0.5L20.3,96l-1.9-4.5c-0.1-0.2-0.1-0.4-0.2-0.5c0-0.1,0-0.3,0.1-0.3
		c0.1-0.1,0.1-0.1,0.2-0.2c0.1,0,0.2-0.1,0.3-0.1c0.1,0,0.1-0.1,0.1-0.2S18.8,90,18.8,90h-2.6C16,90,16,90.1,16,90.2
		C16,90.3,16,90.3,16.1,90.3z M26.6,94v2c0,0.3,0.1,0.6,0.3,0.7c0.2,0.1,0.5,0.2,0.9,0.3c0,0,0,0,0,0.1s0,0.1,0,0.2s0,0.1-0.1,0.1
		h-3c0,0-0.1,0-0.1-0.1s0-0.1,0-0.2s0-0.1,0-0.1c0.3,0,0.5-0.1,0.6-0.3c0.1-0.1,0.2-0.4,0.2-0.7v-4.7c0-0.3-0.1-0.5-0.2-0.7
		c-0.1-0.1-0.4-0.3-0.7-0.3c0,0-0.1-0.1,0-0.2c0-0.1,0.1-0.2,0.1-0.1c0.3,0,0.7,0.1,1.2,0.1c0.2,0,0.6,0,1,0s0.7,0,0.8,0
		c0.8,0,1.4,0.2,1.9,0.5s0.7,0.8,0.7,1.4s-0.2,1-0.6,1.3s-0.8,0.5-1.2,0.5v0.1c0.2,0,0.4,0.1,0.5,0.2c0.2,0.1,0.3,0.3,0.6,0.6l1.6,2
		c0.3,0.3,0.5,0.5,0.8,0.5c0,0,0.1,0,0.1,0.1s0,0.1-0.1,0.2c-0.3,0.1-0.6,0.2-1,0.1s-0.7-0.3-1-0.7l-1.6-2.1
		c-0.2-0.3-0.4-0.4-0.7-0.5C27.3,94,27,94,26.6,94z M26.6,93.5h0.3c0.8,0,1.4-0.1,1.7-0.3c0.3-0.2,0.5-0.5,0.5-1.1
		c0-0.5-0.2-1-0.5-1.3s-0.7-0.4-1.2-0.4c-0.3,0-0.5,0.1-0.7,0.2c-0.1,0.1-0.2,0.3-0.2,0.6v2.3H26.6z M33.1,97
		c0.2,0.1,0.5,0.2,0.8,0.3c0.3,0.1,0.6,0.1,0.9,0.1c0.7,0,1.3-0.2,1.9-0.7c0.5-0.4,0.8-1,0.8-1.6c0-0.4-0.1-0.7-0.3-0.9
		c-0.2-0.3-0.6-0.6-1.1-0.9l-1.2-0.7c-0.4-0.2-0.6-0.4-0.8-0.6c-0.1-0.2-0.2-0.4-0.2-0.6c0-0.3,0.1-0.5,0.3-0.7s0.5-0.3,0.9-0.3
		c0.3,0,0.5,0,0.7,0.1s0.4,0.2,0.5,0.3c0.1,0.1,0.2,0.2,0.3,0.3c0.1,0.1,0.2,0.1,0.2,0.1c0.1,0,0.1-0.1,0.2-0.3l0.1-0.4
		c0-0.1,0-0.2-0.2-0.3c-0.2-0.1-0.4-0.2-0.7-0.3c-0.3-0.1-0.5-0.1-0.8-0.1c-0.7,0-1.3,0.2-1.8,0.6s-0.7,0.9-0.7,1.5
		c0,0.4,0.1,0.7,0.3,0.9c0.2,0.3,0.6,0.6,1.1,0.9l1.2,0.7c0.4,0.2,0.7,0.4,0.8,0.6c0.2,0.1,0.2,0.3,0.2,0.6c0,0.3-0.1,0.6-0.4,0.8
		c-0.2,0.2-0.6,0.3-1,0.3c-0.3,0-0.6,0-0.9-0.2c-0.3-0.1-0.5-0.2-0.6-0.3c-0.1-0.1-0.3-0.2-0.4-0.3c-0.1-0.1-0.2-0.1-0.3-0.1
		s-0.1,0.1-0.2,0.3l-0.1,0.4C32.8,96.7,32.9,96.9,33.1,97z M40.9,97c0.2,0.1,0.5,0.2,0.8,0.3c0.3,0.1,0.6,0.1,0.9,0.1
		c0.7,0,1.3-0.2,1.9-0.7c0.5-0.4,0.8-1,0.8-1.6c0-0.4-0.1-0.7-0.3-0.9c-0.2-0.3-0.6-0.6-1.1-0.9l-1.2-0.7c-0.4-0.2-0.6-0.4-0.8-0.6
		c-0.1-0.2-0.2-0.4-0.2-0.6c0-0.3,0.1-0.5,0.3-0.7s0.5-0.3,0.9-0.3c0.3,0,0.5,0,0.7,0.1s0.4,0.2,0.5,0.3c0.1,0.1,0.2,0.2,0.3,0.3
		c0.1,0.1,0.2,0.1,0.2,0.1c0.1,0,0.1-0.1,0.2-0.3l0.1-0.4c0-0.1,0-0.2-0.2-0.3c-0.2-0.1-0.4-0.2-0.7-0.3c-0.3-0.1-0.5-0.1-0.8-0.1
		c-0.7,0-1.3,0.2-1.8,0.6s-0.7,0.9-0.7,1.5c0,0.4,0.1,0.7,0.3,0.9c0.2,0.3,0.6,0.6,1.1,0.9l1.2,0.7c0.4,0.2,0.7,0.4,0.8,0.6
		c0.2,0.1,0.2,0.3,0.2,0.6c0,0.3-0.1,0.6-0.4,0.8c-0.2,0.2-0.6,0.3-1,0.3c-0.3,0-0.6,0-0.9-0.2c-0.3-0.1-0.5-0.2-0.6-0.3
		c-0.1-0.1-0.3-0.2-0.4-0.3c-0.1-0.1-0.2-0.1-0.3-0.1s-0.1,0.1-0.2,0.3l-0.1,0.4C40.6,96.7,40.7,96.9,40.9,97z M52.2,92.2
		c0,0.9-0.4,1.6-1.1,2c-0.7,0.4-1.7,0.5-2.9,0.3V96c0,0.3,0.1,0.6,0.3,0.7s0.5,0.2,0.9,0.3c0,0,0,0,0,0.1s0,0.1,0,0.2s0,0.1-0.1,0.1
		h-3c0,0-0.1,0-0.1-0.1s0-0.1,0-0.2s0-0.1,0-0.1c0.3,0,0.5-0.1,0.6-0.3c0.1-0.1,0.2-0.4,0.2-0.7v-4.7c0-0.3-0.1-0.5-0.2-0.7
		c-0.1-0.1-0.4-0.3-0.7-0.3c0,0-0.1-0.1,0-0.2c0-0.1,0.1-0.2,0.1-0.1c0.3,0,0.7,0.1,1.2,0.1c0.2,0,0.6,0,1,0s0.7,0,0.9,0
		c0.9,0,1.5,0.2,2.1,0.5C52,90.9,52.2,91.4,52.2,92.2z M51.1,92.4c0-0.6-0.2-1.1-0.5-1.5c-0.4-0.3-0.8-0.5-1.4-0.5
		c-0.4,0-0.6,0.1-0.7,0.2c-0.1,0.1-0.2,0.3-0.2,0.7V94c1,0.1,1.7,0.1,2.1-0.2C50.8,93.6,51.1,93.1,51.1,92.4z M54.4,96.4
		c-0.7-0.7-1.1-1.6-1.1-2.7s0.3-2,1-2.7s1.6-1.1,2.7-1.1c1.1,0,2,0.4,2.7,1.1s1.1,1.6,1.1,2.7s-0.3,2-1,2.7s-1.6,1.1-2.7,1.1
		C56,97.4,55.1,97.1,54.4,96.4z M54.4,93.1c0,1.1,0.3,1.9,0.9,2.6c0.6,0.7,1.3,1,2.1,1c0.3,0,0.5,0,0.8-0.1c0.2-0.1,0.5-0.2,0.7-0.4
		c0.2-0.2,0.4-0.5,0.6-0.8c0.1-0.4,0.2-0.8,0.2-1.3c0-1-0.3-1.9-0.9-2.6c-0.6-0.7-1.3-1-2.1-1c-0.3,0-0.5,0-0.8,0.1
		s-0.5,0.2-0.7,0.4c-0.2,0.2-0.4,0.5-0.6,0.8C54.5,92.2,54.4,92.6,54.4,93.1z M67.1,96.7l-1.6-2.1c-0.2-0.3-0.4-0.4-0.7-0.5
		c-0.3-0.1-0.6-0.1-1-0.1v2c0,0.3,0.1,0.6,0.3,0.7c0.2,0.1,0.5,0.2,0.9,0.3c0,0,0,0,0,0.1s0,0.1,0,0.2s0,0.1-0.1,0.1h-3
		c0,0-0.1,0-0.1-0.1s0-0.1,0-0.2s0-0.1,0-0.1c0.3,0,0.5-0.1,0.6-0.3c0.1-0.1,0.2-0.4,0.2-0.7v-4.7c0-0.3-0.1-0.5-0.2-0.7
		c-0.1-0.1-0.4-0.3-0.7-0.3c0,0-0.1-0.1,0-0.2c0-0.1,0.1-0.2,0.1-0.1c0.3,0,0.7,0.1,1.2,0.1c0.2,0,0.6,0,1,0s0.7,0,0.8,0
		c0.8,0,1.4,0.2,1.9,0.5s0.7,0.8,0.7,1.4s-0.2,1-0.6,1.3s-0.8,0.5-1.2,0.5v0.1c0.2,0,0.4,0.1,0.5,0.2c0.2,0.1,0.3,0.3,0.6,0.6l1.6,2
		c0.3,0.3,0.5,0.5,0.8,0.5c0,0,0.1,0,0.1,0.1s0,0.1-0.1,0.2c-0.3,0.1-0.6,0.2-1,0.1C67.7,97.3,67.4,97.1,67.1,96.7z M65.8,93.2
		c0.3-0.2,0.5-0.5,0.5-1.1c0-0.5-0.2-1-0.5-1.3s-0.7-0.4-1.2-0.4c-0.3,0-0.5,0.1-0.7,0.2c-0.1,0.1-0.2,0.3-0.2,0.6v2.2H64
		C64.9,93.5,65.5,93.4,65.8,93.2z M69.1,91.4c0.1,0,0.2,0,0.3-0.1c0.1-0.2,0.3-0.4,0.6-0.5c0.3-0.1,0.7-0.2,1.2-0.2h0.3
		c0.1,0,0.2,0,0.3,0.1c0,0,0.1,0.1,0.1,0.3v5.2c0,0.3-0.1,0.5-0.3,0.6c-0.2,0.1-0.5,0.2-0.9,0.2c0,0,0,0,0,0.1s0,0.1,0,0.1
		c0,0.1,0,0.1,0.1,0.1H74c0,0,0.1,0,0.1-0.1s0-0.1,0-0.1V97c-0.4,0-0.7-0.1-0.9-0.2c-0.2-0.1-0.3-0.3-0.3-0.6V91
		c0-0.2,0.1-0.3,0.4-0.3h0.4c0.5,0,0.8,0.1,1,0.2s0.4,0.3,0.4,0.5c0,0.1,0.1,0.1,0.2,0.1s0.1,0,0.2-0.1c0-0.3,0.1-0.7,0.3-1.2
		c0-0.1,0-0.1-0.1-0.1s-0.1,0-0.2,0C75,90,74,90,72.3,90c-1.5,0-2.4,0-2.8-0.1c-0.1,0-0.2,0-0.2,0c-0.1,0-0.1,0.1-0.1,0.2
		c0,0.2-0.1,0.6-0.2,1.2C69,91.4,69,91.4,69.1,91.4z"/>
</g>
</svg>
